# xmcd
#
# Track frame offsets:
#	150
#	12480
#	24172
#	34185
#	47312
#	62335
#	77052
#	90247
#	103267
#	115502
#	128062
#	140105
#	151462
#	163402
#	177817
#	190855
#	203705
#	217195
#	234427
#	256355
#	268442
#	279075
#	295050
#	304185
#	314130
#	323375
#
# Disc length: 4565
#
# Revision: 2
# Processed by: cddbd v1.5.1PL0 Copyright (c) Steve Scherf et al.
# Submitted via: OrangeCD 5.2
# Normalized: r1:DSETVAR1
#
DISCID=6b11d31a
DTITLE=Various Artist - Most Wanted Country [CD1]
DYEAR=1995
DGENRE=Country
TTITLE0=Patsi Cline - Crazy
TTITLE1=Johnny Cash - Ring Of Fire
TTITLE2=Buck Owens - I've Got A Tiger By The Tail
TTITLE3=Dolly Parton - I Will Always Love You
TTITLE4=Waylon Jennings - Luckenbach, Texas (Back To The Basics Of Love)
TTITLE5=The Bellamy Brothers - Let Your Love Flow
TTITLE6=Tanya Tucker - Delta Dawn
TTITLE7=Hank Williams - Jambalaya (On The Bayou)
TTITLE8=Merle Haggard - Okie From Muskogee
TTITLE9=Nancy Sinatra and Lee Hazlewood - Jackson
TTITLE10=Eddy Arnold - Make The World Go Away
TTITLE11=Don Gibson - Oh, Lonesome Me
TTITLE12=Guy Mitchell - Heartaches By The Number
TTITLE13=Jeannie C. Riley - Harper Valley, P.T.A
TTITLE14=Sir Douglas Quintet - Meet Me In Stockholm
TTITLE15=Johnny Horton - North To Alaska
TTITLE16=Loretta Lynn - Coal Miner's Daughter
TTITLE17=C.W. McCall - Convoy
TTITLE18=Nitty Gritty Dirt Band - Will The Circle Be Unbroken
TTITLE19=Tammy Wynette - Stand By Your Man
TTITLE20=Leroy Van Dyke - Walk On By
TTITLE21=Billie Jo Spears - Blanket On The Ground
TTITLE22=Frankie Laine - Rawhide
TTITLE23=Charley Pride - Is Anybody Goin' To San Antone
TTITLE24=Chet Atkins - Yakety Axe
TTITLE25=Kris Kristofferson - Me and Bobby McGee
EXTD=
EXTT0=
EXTT1=
EXTT2=
EXTT3=
EXTT4=
EXTT5=
EXTT6=
EXTT7=
EXTT8=
EXTT9=
EXTT10=
EXTT11=
EXTT12=
EXTT13=
EXTT14=
EXTT15=
EXTT16=
EXTT17=
EXTT18=
EXTT19=
EXTT20=
EXTT21=
EXTT22=
EXTT23=
EXTT24=
EXTT25=
PLAYORDER=
